<svg id="Calque_1" data-name="Calque 1" xmlns="http://www.w3.org/2000/svg" viewBox="0 0 187.23 16.96"><defs><style>.cls-1{fill:#009b96;}.cls-2,.cls-3{fill:#fff;}.cls-3{font-size:6.03px;font-family:TsukuARdGothic-Bold-83pv-RKSJ-H, Tsukushi A Round Gothic;font-weight:700;letter-spacing:0.08em;}</style></defs><title>IWI BOUTON SOURCE</title><rect class="cls-1" width="187.23" height="16.96"/><path class="cls-2" d="M116.85,6a.52.52,0,0,0-.54.4c-.12.58-.45,1.93-.66,2.82l-.1.41c-.09-.64-.32-1.66-.49-2.4l-.14-.62a.8.8,0,0,0-.8-.59.74.74,0,0,0-.75.61l-.15.72c-.16.76-.39,1.8-.49,2.37-.13-.83-.49-2.61-.66-3.32a.53.53,0,0,0-.55-.38.54.54,0,0,0-.59.49.43.43,0,0,0,0,.11c.1.43.28,1.15.45,1.84s.31,1.25.41,1.66a.93.93,0,0,0,.88.77,1,1,0,0,0,.9-.77c.15-.54.42-1.82.55-2.7.13.89.44,2.27.55,2.7a.88.88,0,0,0,.82.76,1,1,0,0,0,.91-.73,32.23,32.23,0,0,0,1-3.66A.52.52,0,0,0,116.85,6Z"/><path class="cls-2" d="M122,9.74l-.07,0c-.11,0-.34-.15-.41-.75a1.41,1.41,0,0,1,0-.2,7.33,7.33,0,0,1,0-.77v0c0-.12,0-.22,0-.33a1.5,1.5,0,0,0-1.68-1.67c-1,0-1.86.5-1.86,1a.52.52,0,0,0,.53.51.54.54,0,0,0,.41-.2,1.17,1.17,0,0,1,.86-.37c.53,0,.58.36.58.51s-.05.23-.09.24a10.17,10.17,0,0,0-1.63.42,1.31,1.31,0,0,0-1,1.25,1.63,1.63,0,0,0,1.73,1.56,2.08,2.08,0,0,0,1.51-.57,1.14,1.14,0,0,0,.25.3.63.63,0,0,0,.39.16.63.63,0,0,0,.56-.65A.47.47,0,0,0,122,9.74Zm-1.52-.85c0,.65-.33,1-1,1-.43,0-.65-.25-.65-.5s0-.53,1.61-.73h0S120.45,8.69,120.45,8.88Z"/><path class="cls-2" d="M125.15,6a1.93,1.93,0,0,0-1.31.5.54.54,0,0,0-.57-.48.55.55,0,0,0-.6.51v0c0,.68,0,1.16,0,1.69s0,1.25,0,2.08v0a.55.55,0,0,0,.59.55.53.53,0,0,0,.57-.57c0-.69,0-1.18,0-1.56s0-.48,0-.65A1.27,1.27,0,0,1,125,7c.41,0,.65.26.68.75,0,.15,0,.47,0,.85,0,.59,0,1.31,0,1.68h0a.58.58,0,0,0,1.15,0c0-.2,0-.46,0-.76,0-.68,0-1.51,0-1.89A1.62,1.62,0,0,0,125.15,6Z"/><path class="cls-2" d="M129.25,5.75q0-.12,0-.24c0-.07,0-.15,0-.22,0-.58-.37-.66-.59-.66a.57.57,0,0,0-.47.21.52.52,0,0,0-.09.3c0,.1,0,.2,0,.3s0,.21,0,.32a1.75,1.75,0,0,1,0,.22h-.35a.5.5,0,0,0-.51.52.52.52,0,0,0,.51.54h.35s0,0,0,0v.14c0,.19,0,.5,0,.83s0,.79,0,1.08c0,1.14.5,1.72,1.49,1.72.57,0,.89-.21.89-.59a.52.52,0,0,0-.06-.25.49.49,0,0,0-.18-.19l-.13-.05h-.17l-.23,0c-.43,0-.48-.18-.48-1,0-.36,0-.77,0-1.13s0-.5,0-.65v0h.68a.53.53,0,0,0,0-1.06h-.68Z"/><path class="cls-2" d="M131.83,6a.61.61,0,0,0-.45.17.52.52,0,0,0-.14.39c0,.25,0,.62,0,1s0,.93,0,1.41,0,.91,0,1.29a.55.55,0,0,0,.58.56.56.56,0,0,0,.59-.56v0c0-.69,0-1.3,0-1.83,0-.79,0-1.53,0-1.91v0A.54.54,0,0,0,131.83,6Z"/><path class="cls-2" d="M135.09,5.75q0-.12,0-.24c0-.07,0-.15,0-.22,0-.58-.37-.66-.59-.66a.57.57,0,0,0-.47.21.52.52,0,0,0-.09.3c0,.1,0,.2,0,.3s0,.21,0,.32A1.75,1.75,0,0,1,134,6h-.35a.5.5,0,0,0-.51.52.52.52,0,0,0,.51.54h.35s0,0,0,0v.14c0,.19,0,.5,0,.83s0,.79,0,1.08c0,1.14.5,1.72,1.49,1.72.57,0,.89-.21.89-.59a.52.52,0,0,0-.06-.25.49.49,0,0,0-.19-.19l-.13-.05h-.17l-.23,0c-.43,0-.48-.18-.48-1,0-.36,0-.77,0-1.13s0-.5,0-.65v0h.68a.53.53,0,0,0,0-1.06h-.68Z"/><path class="cls-2" d="M110.32,8.43a.61.61,0,0,0-.17-.45.52.52,0,0,0-.39-.14h-1.65a.55.55,0,0,0-.56.58.56.56,0,0,0,.56.59h0c.69,0,1.25,0,1.64,0h0A.54.54,0,0,0,110.32,8.43Z"/><path class="cls-2" d="M105.93,6a.61.61,0,0,0-.45.17.52.52,0,0,0-.14.39c0,.25,0,.62,0,1s0,.93,0,1.41,0,.91,0,1.29a.55.55,0,0,0,.58.56.56.56,0,0,0,.59-.56v0c0-.69,0-1.3,0-1.83,0-.79,0-1.53,0-1.91v0A.54.54,0,0,0,105.93,6Z"/><path class="cls-2" d="M105.92,3.49a.72.72,0,0,0-.74.72.71.71,0,0,0,.74.75.74.74,0,1,0,0-1.47Z"/><path class="cls-2" d="M131.82,3.49a.72.72,0,0,0-.74.72.71.71,0,0,0,.74.75.74.74,0,1,0,0-1.47Z"/><path class="cls-2" d="M93.33,1.87a2.27,2.27,0,0,0-2.27,2.27v6a2.28,2.28,0,0,0,2.27,2.27,2.4,2.4,0,0,1,1.71.88l.89,1.26a1.29,1.29,0,0,0,.36.35,1,1,0,0,0,.41.15,1.1,1.1,0,0,0,.47,0,1.08,1.08,0,0,0,.39-.24,1.4,1.4,0,0,0,.18-.21l.89-1.26a2.4,2.4,0,0,1,1.71-.88,2.28,2.28,0,0,0,2.27-2.27v-6a2.27,2.27,0,0,0-2.27-2.27Z"/><path class="cls-1" d="M99.5,6a.52.52,0,0,0-.54.4c-.12.59-.45,1.93-.66,2.83l-.1.41C98.1,9,97.88,8,97.71,7.21l-.14-.62a.81.81,0,0,0-.8-.59.74.74,0,0,0-.75.61l-.15.72c-.16.76-.39,1.8-.49,2.38-.13-.84-.49-2.62-.66-3.33A.53.53,0,0,0,94.17,6a.54.54,0,0,0-.59.49.43.43,0,0,0,0,.11c.1.43.28,1.15.45,1.84s.31,1.26.41,1.66a.93.93,0,0,0,.88.77,1,1,0,0,0,.9-.77c.15-.54.42-1.82.55-2.71.13.89.44,2.28.55,2.71a.88.88,0,0,0,.83.76,1,1,0,0,0,.91-.74,32.28,32.28,0,0,0,1-3.66A.52.52,0,0,0,99.5,6Z"/><path class="cls-1" d="M96.82,3.49a.71.71,0,0,0-.73.71.69.69,0,0,0,.73.74.72.72,0,1,0,0-1.45Z"/><text class="cls-3" transform="translate(46.61 10.76)">AJOUTER À</text></svg>