<svg id="Calque_1" data-name="Calque 1" xmlns="http://www.w3.org/2000/svg" viewBox="0 0 135.92 28.95"><defs><style>.cls-1{fill:#009b96;}.cls-2,.cls-3{fill:#fff;}.cls-3{font-size:5.96px;font-family:TsukuARdGothic-Bold-83pv-RKSJ-H, Tsukushi A Round Gothic;font-weight:700;letter-spacing:0.07em;}</style></defs><title>IWI BOUTON SOURCE</title><rect class="cls-1" width="135.92" height="28.95"/><path class="cls-2" d="M88.34,12.62a.51.51,0,0,0-.53.4c-.12.58-.44,1.91-.65,2.79l-.1.4c-.09-.64-.32-1.64-.48-2.38l-.14-.62a.8.8,0,0,0-.79-.58.73.73,0,0,0-.74.6l-.15.71c-.16.75-.38,1.78-.48,2.35-.13-.83-.48-2.59-.66-3.29a.52.52,0,0,0-.54-.37.53.53,0,0,0-.58.49.43.43,0,0,0,0,.11c.1.43.28,1.14.45,1.82s.31,1.24.4,1.64a.92.92,0,0,0,.87.76.94.94,0,0,0,.89-.76c.15-.53.42-1.8.55-2.67.13.88.44,2.25.55,2.67a.87.87,0,0,0,.82.75,1,1,0,0,0,.9-.73,31.89,31.89,0,0,0,1-3.62A.52.52,0,0,0,88.34,12.62Z"/><path class="cls-2" d="M93.4,16.33l-.07,0c-.11,0-.34-.15-.4-.74a1.39,1.39,0,0,1,0-.2,7.25,7.25,0,0,1,0-.76v0c0-.11,0-.21,0-.32a1.48,1.48,0,0,0-1.66-1.65c-.94,0-1.84.5-1.84,1a.52.52,0,0,0,.53.51.53.53,0,0,0,.4-.19,1.16,1.16,0,0,1,.85-.36c.52,0,.58.35.58.5s0,.23-.09.23a10.07,10.07,0,0,0-1.61.41,1.3,1.3,0,0,0-1,1.24,1.61,1.61,0,0,0,1.71,1.54,2.06,2.06,0,0,0,1.49-.57,1.13,1.13,0,0,0,.25.3.62.62,0,0,0,.39.16.63.63,0,0,0,.56-.64A.47.47,0,0,0,93.4,16.33Zm-1.51-.84c0,.64-.33,1-1,1-.42,0-.64-.25-.64-.49s0-.53,1.59-.73h0S91.9,15.3,91.9,15.49Z"/><path class="cls-2" d="M96.55,12.6a1.91,1.91,0,0,0-1.3.49.53.53,0,0,0-.56-.48.54.54,0,0,0-.59.5v0c0,.68,0,1.15,0,1.68s0,1.24,0,2.06v0a.55.55,0,0,0,.58.54.52.52,0,0,0,.56-.56c0-.68,0-1.17,0-1.54s0-.48,0-.64a1.26,1.26,0,0,1,1.2-1.06c.41,0,.65.26.68.74,0,.15,0,.46,0,.84,0,.59,0,1.3,0,1.67h0a.57.57,0,0,0,1.14,0c0-.2,0-.46,0-.75,0-.68,0-1.49,0-1.87A1.61,1.61,0,0,0,96.55,12.6Z"/><path class="cls-2" d="M100.61,12.39q0-.12,0-.23c0-.07,0-.15,0-.22,0-.57-.36-.66-.58-.66a.56.56,0,0,0-.46.21.52.52,0,0,0-.09.3c0,.1,0,.2,0,.29s0,.21,0,.32a1.73,1.73,0,0,1,0,.21h-.35a.49.49,0,0,0-.51.51.51.51,0,0,0,.51.53h.34s0,0,0,0v.14c0,.19,0,.5,0,.82s0,.78,0,1.07c0,1.13.5,1.7,1.47,1.7.56,0,.88-.21.88-.58a.52.52,0,0,0-.06-.25.48.48,0,0,0-.18-.19l-.13,0h-.17l-.23,0c-.43,0-.47-.18-.47-.95,0-.35,0-.76,0-1.12s0-.5,0-.65v0h.68a.52.52,0,0,0,0-1h-.68Z"/><path class="cls-2" d="M103.16,12.62a.61.61,0,0,0-.44.17.52.52,0,0,0-.14.39c0,.25,0,.61,0,1s0,.92,0,1.4,0,.9,0,1.28a.54.54,0,0,0,.57.56.55.55,0,0,0,.58-.56v0c0-.68,0-1.29,0-1.81,0-.78,0-1.51,0-1.89v0A.54.54,0,0,0,103.16,12.62Z"/><path class="cls-2" d="M106.39,12.39q0-.12,0-.23c0-.07,0-.15,0-.22,0-.57-.36-.66-.58-.66a.56.56,0,0,0-.46.21.52.52,0,0,0-.09.3c0,.1,0,.2,0,.29s0,.21,0,.32a1.73,1.73,0,0,1,0,.21h-.35a.49.49,0,0,0-.51.52.51.51,0,0,0,.51.53h.34s0,0,0,0v.14c0,.19,0,.5,0,.83s0,.78,0,1.07c0,1.13.5,1.7,1.47,1.7.56,0,.88-.21.88-.58a.52.52,0,0,0-.06-.25.48.48,0,0,0-.18-.19l-.13,0h-.17l-.23,0c-.43,0-.47-.18-.47-1,0-.35,0-.76,0-1.12s0-.5,0-.65v0h.68a.53.53,0,0,0,0-1h-.68Z"/><path class="cls-2" d="M81.88,15a.61.61,0,0,0-.17-.44.52.52,0,0,0-.39-.14H79.69a.54.54,0,0,0-.56.57.55.55,0,0,0,.56.58h0c.68,0,1.24,0,1.62,0h0A.54.54,0,0,0,81.88,15Z"/><path class="cls-2" d="M77.54,12.62a.61.61,0,0,0-.44.17.52.52,0,0,0-.14.39c0,.25,0,.61,0,1s0,.92,0,1.4,0,.9,0,1.28a.54.54,0,0,0,.57.56.55.55,0,0,0,.58-.56v0c0-.68,0-1.29,0-1.81,0-.78,0-1.51,0-1.89v0A.54.54,0,0,0,77.54,12.62Z"/><path class="cls-2" d="M77.53,10.15a.71.71,0,0,0-.73.71.7.7,0,0,0,.73.74.73.73,0,1,0,0-1.46Z"/><path class="cls-2" d="M103.15,10.15a.71.71,0,0,0-.73.71.7.7,0,0,0,.73.74.73.73,0,1,0,0-1.46Z"/><path class="cls-2" d="M65.07,8.55a2.24,2.24,0,0,0-2.24,2.24v6A2.26,2.26,0,0,0,65.07,19a2.38,2.38,0,0,1,1.69.88l.88,1.24a1.27,1.27,0,0,0,.35.35,1,1,0,0,0,.41.15,1.09,1.09,0,0,0,.46,0,1.07,1.07,0,0,0,.39-.24,1.39,1.39,0,0,0,.18-.21l.88-1.24A2.38,2.38,0,0,1,72,19a2.26,2.26,0,0,0,2.24-2.24v-6A2.24,2.24,0,0,0,72,8.55Z"/><path class="cls-1" d="M71.17,12.62a.51.51,0,0,0-.53.4c-.12.58-.44,1.91-.66,2.8l-.1.4c-.09-.64-.32-1.64-.49-2.38l-.14-.62a.8.8,0,0,0-.79-.59.73.73,0,0,0-.74.6l-.15.71c-.16.76-.38,1.78-.48,2.35-.13-.83-.48-2.59-.66-3.29a.52.52,0,0,0-.54-.37.53.53,0,0,0-.58.49.43.43,0,0,0,0,.11c.1.43.28,1.14.45,1.82s.31,1.24.4,1.64a.92.92,0,0,0,.87.76.94.94,0,0,0,.89-.76c.15-.53.42-1.8.55-2.68.13.88.44,2.25.55,2.68a.87.87,0,0,0,.82.75,1,1,0,0,0,.9-.73,31.94,31.94,0,0,0,1-3.62A.52.52,0,0,0,71.17,12.62Z"/><path class="cls-1" d="M68.53,10.15a.7.7,0,0,0-.72.7.69.69,0,0,0,.72.73.72.72,0,1,0,0-1.43Z"/><text class="cls-3" transform="translate(28.32 17.35)"><tspan xml:space="preserve"> ADD TO</tspan></text></svg>