<svg id="Calque_1" data-name="Calque 1" xmlns="http://www.w3.org/2000/svg" xmlns:xlink="http://www.w3.org/1999/xlink" viewBox="0 0 30.37 30.37"><defs><style>.cls-1{fill:#fff;}.cls-2{fill:url(#Dégradé_sans_nom_2);}</style><linearGradient id="Dégradé_sans_nom_2" x1="17.25" y1="17.7" x2="14.14" y2="11.43" gradientUnits="userSpaceOnUse"><stop offset="0" stop-color="#009b96"/><stop offset="1" stop-color="#66bc94"/></linearGradient></defs><title>IWI BOUTON SOURCE</title><rect class="cls-1" width="30.37" height="30.37" rx="15.19" ry="15.19"/><path class="cls-2" d="M10.91,7A2.8,2.8,0,0,0,8.13,9.78V17.3a2.82,2.82,0,0,0,2.77,2.82A2.92,2.92,0,0,1,13,21.23l1.08,1.56a1.59,1.59,0,0,0,.44.43,1.18,1.18,0,0,0,.51.18,1.24,1.24,0,0,0,1.05-.36,1.74,1.74,0,0,0,.22-.26l1.08-1.56a2.92,2.92,0,0,1,2.09-1.1,2.82,2.82,0,0,0,2.77-2.82V9.78A2.8,2.8,0,0,0,19.46,7Z"/><path class="cls-1" d="M18.46,12.08a.64.64,0,0,0-.66.5c-.15.73-.55,2.41-.81,3.52l-.12.51c-.12-.8-.39-2.07-.6-3l-.17-.78a1,1,0,0,0-1-.74.91.91,0,0,0-.92.76l-.19.9c-.2,1-.47,2.25-.6,3-.16-1-.6-3.26-.81-4.15a.65.65,0,0,0-.67-.47.66.66,0,0,0-.72.62.55.55,0,0,0,0,.14c.12.54.34,1.43.55,2.3s.38,1.56.5,2.07a1.14,1.14,0,0,0,1.08,1,1.17,1.17,0,0,0,1.1-1c.18-.67.52-2.27.68-3.37.16,1.1.54,2.84.68,3.37a1.08,1.08,0,0,0,1,.95,1.23,1.23,0,0,0,1.11-.92,40.8,40.8,0,0,0,1.22-4.56A.65.65,0,0,0,18.46,12.08Z"/><path class="cls-1" d="M15.19,9a.87.87,0,0,0-.89.88.86.86,0,0,0,.89.92.9.9,0,0,0,0-1.8Z"/></svg>