<svg id="Calque_1" data-name="Calque 1" xmlns="http://www.w3.org/2000/svg" xmlns:xlink="http://www.w3.org/1999/xlink" viewBox="0 0 187.23 16.96"><defs><style>.cls-1{fill:#fff;}.cls-2{font-size:6.03px;fill:#009b96;font-family:TsukuARdGothic-Bold-83pv-RKSJ-H, Tsukushi A Round Gothic;font-weight:700;letter-spacing:0.08em;}.cls-3{fill:url(#Nouvelle_nuance_de_dégradé_1);}.cls-4{fill:url(#Nouvelle_nuance_de_dégradé_1-2);}.cls-5{fill:url(#Nouvelle_nuance_de_dégradé_1-3);}.cls-6{fill:url(#Nouvelle_nuance_de_dégradé_1-4);}.cls-7{fill:url(#Nouvelle_nuance_de_dégradé_1-5);}.cls-8{fill:url(#Nouvelle_nuance_de_dégradé_1-6);}.cls-9{fill:url(#Dégradé_sans_nom_2);}.cls-10{fill:url(#Nouvelle_nuance_de_dégradé_1-7);}.cls-11{fill:url(#Nouvelle_nuance_de_dégradé_1-8);}.cls-12{fill:url(#Nouvelle_nuance_de_dégradé_1-9);}.cls-13{fill:url(#Dégradé_sans_nom_2-2);}</style><linearGradient id="Nouvelle_nuance_de_dégradé_1" x1="125" y1="11.53" x2="125.85" y2="4.74" gradientUnits="userSpaceOnUse"><stop offset="0" stop-color="#303147"/><stop offset="1" stop-color="#4a4f6f"/></linearGradient><linearGradient id="Nouvelle_nuance_de_dégradé_1-2" x1="131.06" y1="12.31" x2="131.92" y2="5.51" xlink:href="#Nouvelle_nuance_de_dégradé_1"/><linearGradient id="Nouvelle_nuance_de_dégradé_1-3" x1="135.65" y1="12.9" x2="136.51" y2="6.1" xlink:href="#Nouvelle_nuance_de_dégradé_1"/><linearGradient id="Nouvelle_nuance_de_dégradé_1-4" x1="139.69" y1="13.42" x2="140.55" y2="6.61" xlink:href="#Nouvelle_nuance_de_dégradé_1"/><linearGradient id="Nouvelle_nuance_de_dégradé_1-5" x1="142.58" y1="14.01" x2="143.44" y2="7.2" xlink:href="#Nouvelle_nuance_de_dégradé_1"/><linearGradient id="Nouvelle_nuance_de_dégradé_1-6" x1="145.41" y1="14.36" x2="146.27" y2="7.55" xlink:href="#Nouvelle_nuance_de_dégradé_1"/><linearGradient id="Dégradé_sans_nom_2" x1="120.07" y1="10.93" x2="120.92" y2="4.15" gradientUnits="userSpaceOnUse"><stop offset="0" stop-color="#009b96"/><stop offset="1" stop-color="#66bc94"/></linearGradient><linearGradient id="Nouvelle_nuance_de_dégradé_1-7" x1="117.11" y1="10.6" x2="117.96" y2="3.8" xlink:href="#Nouvelle_nuance_de_dégradé_1"/><linearGradient id="Nouvelle_nuance_de_dégradé_1-8" x1="116.57" y1="10.53" x2="117.43" y2="3.73" xlink:href="#Nouvelle_nuance_de_dégradé_1"/><linearGradient id="Nouvelle_nuance_de_dégradé_1-9" x1="142.04" y1="13.93" x2="142.9" y2="7.13" xlink:href="#Nouvelle_nuance_de_dégradé_1"/><linearGradient id="Dégradé_sans_nom_2-2" x1="109.97" y1="10.53" x2="107.42" y2="5.41" xlink:href="#Dégradé_sans_nom_2"/></defs><title>IWI BOUTON SOURCE</title><rect class="cls-1" width="187.23" height="16.96"/><text class="cls-2" transform="translate(39.84 10.76)">ADD TO MY LIST</text><path class="cls-3" d="M128.31,5.94a.52.52,0,0,0-.54.41c-.12.6-.45,2-.66,2.87l-.1.41c-.09-.66-.32-1.69-.49-2.45l-.14-.64a.81.81,0,0,0-.8-.6.74.74,0,0,0-.75.62l-.15.73c-.16.78-.39,1.83-.49,2.42-.13-.85-.49-2.66-.66-3.39a.53.53,0,0,0-.55-.38.54.54,0,0,0-.59.5.45.45,0,0,0,0,.12c.1.44.28,1.17.45,1.87s.31,1.28.41,1.69a.93.93,0,0,0,.88.78,1,1,0,0,0,.9-.78c.15-.55.42-1.85.55-2.75.13.9.44,2.31.55,2.75a.88.88,0,0,0,.82.77,1,1,0,0,0,.91-.75,33.3,33.3,0,0,0,1-3.72A.53.53,0,0,0,128.31,5.94Z"/><path class="cls-4" d="M133.42,9.76l-.07,0c-.11-.05-.34-.16-.41-.76a1.46,1.46,0,0,1,0-.21A7.6,7.6,0,0,1,133,8v0c0-.12,0-.22,0-.33a1.51,1.51,0,0,0-1.68-1.7c-1,0-1.86.51-1.86,1a.53.53,0,0,0,.53.52.54.54,0,0,0,.41-.2,1.16,1.16,0,0,1,.86-.37c.53,0,.58.36.58.52s-.05.24-.09.24a10,10,0,0,0-1.63.42,1.34,1.34,0,0,0-1,1.27,1.64,1.64,0,0,0,1.73,1.59,2.06,2.06,0,0,0,1.51-.58,1.16,1.16,0,0,0,.25.31.62.62,0,0,0,.39.16.64.64,0,0,0,.56-.66A.48.48,0,0,0,133.42,9.76Zm-1.52-.87a.88.88,0,0,1-1,1c-.43,0-.65-.26-.65-.51s0-.54,1.61-.75h0S131.9,8.69,131.9,8.89Z"/><path class="cls-5" d="M136.6,5.92a1.91,1.91,0,0,0-1.31.51.54.54,0,0,0-.57-.49.55.55,0,0,0-.6.52v0c0,.7,0,1.18,0,1.72s0,1.28,0,2.12v0a.6.6,0,0,0,1,.39.58.58,0,0,0,.15-.41c0-.7,0-1.2,0-1.59s0-.49,0-.66A1.28,1.28,0,0,1,136.47,7c.41,0,.65.27.68.76,0,.15,0,.48,0,.86,0,.6,0,1.33,0,1.72h0a.58.58,0,1,0,1.15,0c0-.2,0-.47,0-.78,0-.7,0-1.54,0-1.92A1.64,1.64,0,0,0,136.6,5.92Z"/><path class="cls-6" d="M140.71,5.7q0-.12,0-.24c0-.08,0-.15,0-.23,0-.59-.37-.67-.59-.67a.56.56,0,0,0-.47.22.54.54,0,0,0-.09.31c0,.1,0,.2,0,.3s0,.22,0,.33a1.81,1.81,0,0,1,0,.22h-.35a.5.5,0,0,0-.51.53.52.52,0,0,0,.51.55h.35s0,0,0,0v.14c0,.2,0,.51,0,.85s0,.8,0,1.1c0,1.16.5,1.75,1.49,1.75.57,0,.89-.22.89-.6a.54.54,0,0,0-.06-.25.49.49,0,0,0-.18-.19l-.13-.05h-.17l-.23,0c-.43,0-.48-.19-.48-1,0-.36,0-.78,0-1.15s0-.51,0-.67V7h.68a.51.51,0,0,0,.5-.54.5.5,0,0,0-.5-.54h-.68Z"/><path class="cls-7" d="M143.29,5.93a.61.61,0,0,0-.45.18.54.54,0,0,0-.14.4c0,.26,0,.63,0,1.07s0,.95,0,1.44,0,.93,0,1.31a.55.55,0,0,0,.58.57.56.56,0,0,0,.59-.57v0c0-.7,0-1.33,0-1.86,0-.8,0-1.56,0-1.95v0A.55.55,0,0,0,143.29,5.93Z"/><path class="cls-8" d="M146.55,5.7q0-.12,0-.24c0-.08,0-.15,0-.23,0-.59-.37-.68-.59-.68a.56.56,0,0,0-.47.22.54.54,0,0,0-.09.31c0,.1,0,.2,0,.3s0,.22,0,.33a1.82,1.82,0,0,1,0,.22h-.35a.5.5,0,0,0-.51.53.52.52,0,0,0,.51.55h.35s0,0,0,0v.14c0,.2,0,.51,0,.85s0,.8,0,1.1c0,1.16.5,1.75,1.49,1.75.57,0,.89-.22.89-.6a.54.54,0,0,0-.06-.25.49.49,0,0,0-.19-.19l-.13-.05h-.17l-.23,0c-.43,0-.48-.19-.48-1,0-.36,0-.78,0-1.15s0-.51,0-.67V7h.68a.51.51,0,0,0,.5-.54.5.5,0,0,0-.5-.54h-.68Z"/><path class="cls-9" d="M121.77,8.43A.63.63,0,0,0,121.6,8a.52.52,0,0,0-.39-.14h-1.65a.55.55,0,0,0-.56.59.56.56,0,0,0,.56.6h0c.69,0,1.25,0,1.64,0h0A.55.55,0,0,0,121.77,8.43Z"/><path class="cls-10" d="M117.39,5.94a.61.61,0,0,0-.45.18.54.54,0,0,0-.14.4c0,.26,0,.63,0,1.07s0,.95,0,1.44,0,.93,0,1.31a.55.55,0,0,0,.58.57.56.56,0,0,0,.59-.57v0c0-.7,0-1.33,0-1.86,0-.8,0-1.56,0-1.95v0A.55.55,0,0,0,117.39,5.94Z"/><path class="cls-11" d="M117.38,3.4a.73.73,0,0,0-.74.73.71.71,0,0,0,.74.76.75.75,0,0,0,0-1.5Z"/><path class="cls-12" d="M143.27,3.4a.73.73,0,0,0-.74.73.71.71,0,0,0,.74.76.75.75,0,0,0,0-1.5Z"/><path class="cls-13" d="M104.78,1.75a2.29,2.29,0,0,0-2.27,2.31v6.15a2.31,2.31,0,0,0,2.27,2.31,2.39,2.39,0,0,1,1.71.9l.89,1.28a1.3,1.3,0,0,0,.36.36,1,1,0,0,0,.41.15,1,1,0,0,0,.86-.29,1.42,1.42,0,0,0,.18-.21l.89-1.28a2.39,2.39,0,0,1,1.71-.9A2.31,2.31,0,0,0,114,10.21V4.06a2.29,2.29,0,0,0-2.27-2.31Z"/><path class="cls-1" d="M111,5.94a.52.52,0,0,0-.54.41c-.12.6-.45,2-.66,2.88l-.1.41c-.09-.66-.32-1.69-.49-2.45L109,6.55a.81.81,0,0,0-.8-.6.74.74,0,0,0-.75.62l-.15.73c-.16.78-.39,1.84-.49,2.42-.13-.85-.49-2.67-.66-3.39a.53.53,0,0,0-.55-.38.54.54,0,0,0-.59.5.45.45,0,0,0,0,.12c.1.44.28,1.17.45,1.88s.31,1.28.41,1.69a.93.93,0,0,0,.88.78,1,1,0,0,0,.9-.78c.15-.55.42-1.85.55-2.76.13.9.44,2.32.55,2.76a.89.89,0,0,0,.83.77,1,1,0,0,0,.91-.75,33.35,33.35,0,0,0,1-3.73A.53.53,0,0,0,111,5.94Z"/><path class="cls-1" d="M108.28,3.4a.71.71,0,0,0-.73.72.7.7,0,0,0,.73.75.74.74,0,0,0,0-1.47Z"/></svg>