<svg id="Calque_1" data-name="Calque 1" xmlns="http://www.w3.org/2000/svg" xmlns:xlink="http://www.w3.org/1999/xlink" viewBox="0 0 75.29 21.25"><defs><style>.cls-1{fill:#fff;}.cls-2{fill:url(#Nouvelle_nuance_de_dégradé_1);}.cls-3{fill:url(#Nouvelle_nuance_de_dégradé_1-2);}.cls-4{fill:url(#Nouvelle_nuance_de_dégradé_1-3);}.cls-5{fill:url(#Nouvelle_nuance_de_dégradé_1-4);}.cls-6{fill:url(#Nouvelle_nuance_de_dégradé_1-5);}.cls-7{fill:url(#Nouvelle_nuance_de_dégradé_1-6);}.cls-8{fill:url(#Dégradé_sans_nom_2);}.cls-9{fill:url(#Nouvelle_nuance_de_dégradé_1-7);}.cls-10{fill:url(#Nouvelle_nuance_de_dégradé_1-8);}.cls-11{fill:url(#Nouvelle_nuance_de_dégradé_1-9);}.cls-12{fill:url(#Dégradé_sans_nom_2-2);}</style><linearGradient id="Nouvelle_nuance_de_dégradé_1" x1="37.5" y1="13.64" x2="38.36" y2="6.81" gradientUnits="userSpaceOnUse"><stop offset="0" stop-color="#303147"/><stop offset="1" stop-color="#4a4f6f"/></linearGradient><linearGradient id="Nouvelle_nuance_de_dégradé_1-2" x1="43.6" y1="14.42" x2="44.46" y2="7.59" xlink:href="#Nouvelle_nuance_de_dégradé_1"/><linearGradient id="Nouvelle_nuance_de_dégradé_1-3" x1="48.21" y1="15.01" x2="49.07" y2="8.18" xlink:href="#Nouvelle_nuance_de_dégradé_1"/><linearGradient id="Nouvelle_nuance_de_dégradé_1-4" x1="52.26" y1="15.54" x2="53.13" y2="8.7" xlink:href="#Nouvelle_nuance_de_dégradé_1"/><linearGradient id="Nouvelle_nuance_de_dégradé_1-5" x1="55.17" y1="16.13" x2="56.03" y2="9.29" xlink:href="#Nouvelle_nuance_de_dégradé_1"/><linearGradient id="Nouvelle_nuance_de_dégradé_1-6" x1="58.01" y1="16.48" x2="58.87" y2="9.64" xlink:href="#Nouvelle_nuance_de_dégradé_1"/><linearGradient id="Dégradé_sans_nom_2" x1="32.55" y1="13.04" x2="33.41" y2="6.22" gradientUnits="userSpaceOnUse"><stop offset="0" stop-color="#009b96"/><stop offset="1" stop-color="#66bc94"/></linearGradient><linearGradient id="Nouvelle_nuance_de_dégradé_1-7" x1="29.57" y1="12.71" x2="30.43" y2="5.87" xlink:href="#Nouvelle_nuance_de_dégradé_1"/><linearGradient id="Nouvelle_nuance_de_dégradé_1-8" x1="29.03" y1="12.64" x2="29.89" y2="5.8" xlink:href="#Nouvelle_nuance_de_dégradé_1"/><linearGradient id="Nouvelle_nuance_de_dégradé_1-9" x1="54.63" y1="16.06" x2="55.49" y2="9.22" xlink:href="#Nouvelle_nuance_de_dégradé_1"/><linearGradient id="Dégradé_sans_nom_2-2" x1="22.39" y1="12.64" x2="19.84" y2="7.49" xlink:href="#Dégradé_sans_nom_2"/></defs><title>IWI BOUTON SOURCE</title><rect class="cls-1" width="75.29" height="21.25"/><path class="cls-2" d="M40.83,8a.52.52,0,0,0-.54.41c-.12.6-.45,2-.67,2.89l-.1.42c-.09-.66-.32-1.7-.49-2.46l-.14-.64a.81.81,0,0,0-.8-.6.75.75,0,0,0-.75.62l-.15.74c-.16.78-.39,1.84-.49,2.43-.13-.85-.49-2.67-.67-3.4A.53.53,0,0,0,35.48,8a.54.54,0,0,0-.59.51.45.45,0,0,0,0,.12c.1.44.28,1.17.45,1.88s.31,1.28.41,1.69a.94.94,0,0,0,.89.79,1,1,0,0,0,.9-.78c.15-.55.43-1.86.55-2.77.13.91.44,2.33.55,2.77a.89.89,0,0,0,.83.78,1,1,0,0,0,.91-.75,33.46,33.46,0,0,0,1-3.74A.53.53,0,0,0,40.83,8Z"/><path class="cls-3" d="M46,11.86l-.07,0c-.11-.05-.34-.16-.41-.76a1.47,1.47,0,0,1,0-.21,7.63,7.63,0,0,1,0-.79v0c0-.12,0-.22,0-.33A1.52,1.52,0,0,0,43.86,8C42.9,8,42,8.49,42,9a.53.53,0,0,0,.54.53.54.54,0,0,0,.41-.2A1.17,1.17,0,0,1,43.8,9c.53,0,.59.36.59.52s-.05.24-.09.24a10.07,10.07,0,0,0-1.63.43,1.34,1.34,0,0,0-1,1.28A1.65,1.65,0,0,0,43.43,13a2.07,2.07,0,0,0,1.51-.59,1.16,1.16,0,0,0,.26.31.62.62,0,0,0,.39.16.65.65,0,0,0,.56-.66A.49.49,0,0,0,46,11.86ZM44.44,11a.88.88,0,0,1-1,1c-.43,0-.65-.26-.65-.51s0-.55,1.61-.75h0S44.44,10.79,44.44,11Z"/><path class="cls-4" d="M49.16,8a1.92,1.92,0,0,0-1.32.51A.54.54,0,0,0,47.28,8a.55.55,0,0,0-.6.52v0c0,.7,0,1.19,0,1.73s0,1.28,0,2.13v0a.6.6,0,0,0,1,.4.58.58,0,0,0,.15-.42c0-.7,0-1.21,0-1.6s0-.49,0-.67A1.28,1.28,0,0,1,49,9.07c.41,0,.66.27.69.76,0,.15,0,.48,0,.87,0,.61,0,1.34,0,1.72h0a.58.58,0,1,0,1.16,0c0-.21,0-.47,0-.78,0-.7,0-1.54,0-1.93A1.65,1.65,0,0,0,49.16,8Z"/><path class="cls-5" d="M53.29,7.79q0-.12,0-.24c0-.08,0-.15,0-.23,0-.59-.37-.68-.59-.68a.56.56,0,0,0-.47.22.54.54,0,0,0-.09.31c0,.1,0,.2,0,.3s0,.22,0,.33a1.82,1.82,0,0,1,0,.22h-.35a.51.51,0,0,0-.51.53.52.52,0,0,0,.51.55h.35s0,0,0,0v.15c0,.2,0,.51,0,.85s0,.81,0,1.11c0,1.16.5,1.76,1.5,1.76.57,0,.89-.22.89-.6a.54.54,0,0,0-.06-.26.49.49,0,0,0-.19-.19l-.13-.05H54l-.23,0c-.43,0-.48-.19-.48-1,0-.37,0-.79,0-1.16s0-.51,0-.67v0H54A.54.54,0,0,0,54,8h-.69Z"/><path class="cls-6" d="M55.88,8a.61.61,0,0,0-.45.18.54.54,0,0,0-.14.4c0,.26,0,.64,0,1.07s0,1,0,1.44,0,.93,0,1.32a.56.56,0,0,0,.58.57.57.57,0,0,0,.59-.57v0c0-.7,0-1.33,0-1.87,0-.81,0-1.56,0-2v0A.55.55,0,0,0,55.88,8Z"/><path class="cls-7" d="M59.16,7.78q0-.12,0-.24c0-.08,0-.15,0-.23,0-.59-.37-.68-.59-.68a.57.57,0,0,0-.47.22.54.54,0,0,0-.09.31c0,.1,0,.2,0,.3s0,.22,0,.33A1.82,1.82,0,0,1,58,8h-.35a.51.51,0,0,0-.51.53.52.52,0,0,0,.51.55H58s0,0,0,0V9.3c0,.2,0,.52,0,.85s0,.81,0,1.11c0,1.17.5,1.76,1.5,1.76.57,0,.9-.22.9-.6a.54.54,0,0,0-.07-.26.5.5,0,0,0-.19-.19L60,11.92h-.17l-.24,0c-.43,0-.48-.19-.48-1,0-.37,0-.79,0-1.16s0-.51,0-.67v0h.69a.54.54,0,0,0,0-1.08h-.69Z"/><path class="cls-8" d="M34.26,10.52a.63.63,0,0,0-.17-.46.52.52,0,0,0-.39-.15H32a.56.56,0,0,0-.56.59.57.57,0,0,0,.56.6h0c.69,0,1.26,0,1.65,0h0A.55.55,0,0,0,34.26,10.52Z"/><path class="cls-9" d="M29.85,8a.61.61,0,0,0-.45.18.54.54,0,0,0-.14.4c0,.26,0,.64,0,1.07s0,1,0,1.44,0,.93,0,1.32a.56.56,0,0,0,.58.57.57.57,0,0,0,.59-.57v0c0-.7,0-1.33,0-1.87,0-.81,0-1.56,0-2v0A.55.55,0,0,0,29.85,8Z"/><path class="cls-10" d="M29.84,5.47a.73.73,0,0,0-.74.74.72.72,0,0,0,.74.77.75.75,0,0,0,0-1.5Z"/><path class="cls-11" d="M55.87,5.47a.73.73,0,0,0-.74.74.72.72,0,0,0,.74.77.75.75,0,0,0,0-1.5Z"/><path class="cls-12" d="M17.18,3.81a2.3,2.3,0,0,0-2.28,2.32v6.19a2.32,2.32,0,0,0,2.28,2.32,2.4,2.4,0,0,1,1.71.91l.89,1.28a1.3,1.3,0,0,0,.36.36,1,1,0,0,0,.41.15,1,1,0,0,0,.87-.29,1.43,1.43,0,0,0,.18-.21l.89-1.28a2.4,2.4,0,0,1,1.71-.91,2.32,2.32,0,0,0,2.28-2.32V6.13a2.3,2.3,0,0,0-2.28-2.32Z"/><path class="cls-1" d="M23.39,8a.52.52,0,0,0-.54.41c-.12.6-.45,2-.67,2.89l-.1.42c-.09-.66-.32-1.7-.49-2.47l-.14-.64a.81.81,0,0,0-.8-.61.75.75,0,0,0-.75.63l-.15.74c-.16.78-.39,1.85-.49,2.43-.13-.86-.49-2.68-.67-3.41A.53.53,0,0,0,18,8a.55.55,0,0,0-.59.51.45.45,0,0,0,0,.12c.1.44.28,1.18.45,1.89s.31,1.29.41,1.7a.94.94,0,0,0,.89.79,1,1,0,0,0,.91-.79c.15-.55.43-1.86.56-2.77.13.91.44,2.33.56,2.77A.89.89,0,0,0,22,13a1,1,0,0,0,.91-.75,33.52,33.52,0,0,0,1-3.75A.53.53,0,0,0,23.39,8Z"/><path class="cls-1" d="M20.7,5.47a.72.72,0,0,0-.73.73.7.7,0,0,0,.73.75.74.74,0,0,0,0-1.48Z"/></svg>