<svg id="Calque_1" data-name="Calque 1" xmlns="http://www.w3.org/2000/svg" xmlns:xlink="http://www.w3.org/1999/xlink" viewBox="0 0 135.92 28.95"><defs><style>.cls-1{fill:#fff;}.cls-2{font-size:5.96px;fill:#009b96;font-family:TsukuARdGothic-Bold-83pv-RKSJ-H, Tsukushi A Round Gothic;font-weight:700;letter-spacing:0.07em;}.cls-3{fill:url(#Nouvelle_nuance_de_dégradé_1);}.cls-4{fill:url(#Nouvelle_nuance_de_dégradé_1-2);}.cls-5{fill:url(#Nouvelle_nuance_de_dégradé_1-3);}.cls-6{fill:url(#Nouvelle_nuance_de_dégradé_1-4);}.cls-7{fill:url(#Nouvelle_nuance_de_dégradé_1-5);}.cls-8{fill:url(#Nouvelle_nuance_de_dégradé_1-6);}.cls-9{fill:url(#Dégradé_sans_nom_2);}.cls-10{fill:url(#Nouvelle_nuance_de_dégradé_1-7);}.cls-11{fill:url(#Nouvelle_nuance_de_dégradé_1-8);}.cls-12{fill:url(#Nouvelle_nuance_de_dégradé_1-9);}.cls-13{fill:url(#Dégradé_sans_nom_2-2);}</style><linearGradient id="Nouvelle_nuance_de_dégradé_1" x1="89.25" y1="17.49" x2="90.09" y2="10.77" gradientUnits="userSpaceOnUse"><stop offset="0" stop-color="#303147"/><stop offset="1" stop-color="#4a4f6f"/></linearGradient><linearGradient id="Nouvelle_nuance_de_dégradé_1-2" x1="95.25" y1="18.26" x2="96.1" y2="11.53" xlink:href="#Nouvelle_nuance_de_dégradé_1"/><linearGradient id="Nouvelle_nuance_de_dégradé_1-3" x1="99.79" y1="18.84" x2="100.64" y2="12.11" xlink:href="#Nouvelle_nuance_de_dégradé_1"/><linearGradient id="Nouvelle_nuance_de_dégradé_1-4" x1="103.79" y1="19.36" x2="104.64" y2="12.63" xlink:href="#Nouvelle_nuance_de_dégradé_1"/><linearGradient id="Nouvelle_nuance_de_dégradé_1-5" x1="106.65" y1="19.94" x2="107.49" y2="13.21" xlink:href="#Nouvelle_nuance_de_dégradé_1"/><linearGradient id="Nouvelle_nuance_de_dégradé_1-6" x1="109.45" y1="20.29" x2="110.3" y2="13.55" xlink:href="#Nouvelle_nuance_de_dégradé_1"/><linearGradient id="Dégradé_sans_nom_2" x1="84.37" y1="16.9" x2="85.22" y2="10.19" gradientUnits="userSpaceOnUse"><stop offset="0" stop-color="#009b96"/><stop offset="1" stop-color="#66bc94"/></linearGradient><linearGradient id="Nouvelle_nuance_de_dégradé_1-7" x1="81.44" y1="16.57" x2="82.29" y2="9.84" xlink:href="#Nouvelle_nuance_de_dégradé_1"/><linearGradient id="Nouvelle_nuance_de_dégradé_1-8" x1="80.91" y1="16.5" x2="81.76" y2="9.77" xlink:href="#Nouvelle_nuance_de_dégradé_1"/><linearGradient id="Nouvelle_nuance_de_dégradé_1-9" x1="106.11" y1="19.87" x2="106.96" y2="13.14" xlink:href="#Nouvelle_nuance_de_dégradé_1"/><linearGradient id="Dégradé_sans_nom_2-2" x1="74.38" y1="16.5" x2="71.86" y2="11.43" xlink:href="#Dégradé_sans_nom_2"/></defs><title>IWI BOUTON SOURCE</title><rect class="cls-1" width="135.92" height="28.95"/><text class="cls-2" transform="translate(24.13 16.73)">AJOUTER À</text><path class="cls-3" d="M92.53,12a.51.51,0,0,0-.53.4c-.12.59-.44,1.95-.65,2.84l-.1.41c-.09-.65-.32-1.67-.48-2.42l-.14-.63a.8.8,0,0,0-.79-.6.74.74,0,0,0-.74.61l-.15.73c-.16.77-.38,1.81-.48,2.39-.13-.84-.48-2.63-.66-3.35a.52.52,0,0,0-.54-.38.54.54,0,0,0-.58.5.44.44,0,0,0,0,.12c.1.43.28,1.16.45,1.85s.31,1.26.4,1.67a.92.92,0,0,0,.87.77,1,1,0,0,0,.89-.77c.15-.54.42-1.83.55-2.72.13.89.44,2.29.55,2.72a.88.88,0,0,0,.82.76,1,1,0,0,0,.9-.74,33,33,0,0,0,1-3.68A.52.52,0,0,0,92.53,12Z"/><path class="cls-4" d="M97.59,15.74l-.07,0c-.11,0-.34-.15-.4-.75a1.44,1.44,0,0,1,0-.2,7.52,7.52,0,0,1,0-.78v0c0-.12,0-.22,0-.33a1.49,1.49,0,0,0-1.66-1.68c-.94,0-1.84.5-1.84,1a.52.52,0,0,0,.53.52.53.53,0,0,0,.4-.2,1.15,1.15,0,0,1,.85-.37c.52,0,.58.36.58.51s0,.24-.09.24a9.92,9.92,0,0,0-1.61.42,1.32,1.32,0,0,0-1,1.26,1.62,1.62,0,0,0,1.71,1.57,2,2,0,0,0,1.49-.58,1.14,1.14,0,0,0,.25.3.61.61,0,0,0,.39.16.64.64,0,0,0,.56-.65A.48.48,0,0,0,97.59,15.74Zm-1.51-.86a.87.87,0,0,1-1,1c-.42,0-.64-.25-.64-.5s0-.54,1.59-.74h0S96.08,14.68,96.08,14.88Z"/><path class="cls-5" d="M100.74,11.94a1.89,1.89,0,0,0-1.3.5.53.53,0,0,0-.56-.48.55.55,0,0,0-.59.51v0c0,.69,0,1.17,0,1.71s0,1.26,0,2.1v0a.59.59,0,0,0,1,.39.57.57,0,0,0,.14-.41c0-.69,0-1.19,0-1.57s0-.48,0-.66A1.26,1.26,0,0,1,100.6,13c.41,0,.65.27.68.75,0,.15,0,.47,0,.85,0,.6,0,1.32,0,1.7h0a.57.57,0,1,0,1.14,0c0-.2,0-.46,0-.77,0-.69,0-1.52,0-1.9A1.62,1.62,0,0,0,100.74,11.94Z"/><path class="cls-6" d="M104.79,11.73q0-.12,0-.24c0-.08,0-.15,0-.23,0-.58-.36-.67-.58-.67a.56.56,0,0,0-.46.22.53.53,0,0,0-.09.3c0,.1,0,.2,0,.3s0,.22,0,.32a1.8,1.8,0,0,1,0,.22h-.35a.5.5,0,0,0-.51.52.52.52,0,0,0,.51.54h.34s0,0,0,0v.14c0,.2,0,.51,0,.84s0,.79,0,1.09c0,1.15.5,1.73,1.47,1.73.56,0,.88-.22.88-.59a.53.53,0,0,0-.06-.25.49.49,0,0,0-.18-.19l-.13-.05h-.17l-.23,0c-.43,0-.47-.18-.47-1,0-.36,0-.77,0-1.14s0-.51,0-.66v0h.68a.54.54,0,0,0,0-1.07h-.68Z"/><path class="cls-7" d="M107.35,12a.6.6,0,0,0-.44.17.53.53,0,0,0-.14.4c0,.25,0,.63,0,1.06s0,.94,0,1.42,0,.92,0,1.3a.55.55,0,0,0,.57.57.56.56,0,0,0,.58-.57v0c0-.69,0-1.31,0-1.84,0-.79,0-1.54,0-1.93v0A.54.54,0,0,0,107.35,12Z"/><path class="cls-8" d="M110.57,11.72q0-.12,0-.24c0-.08,0-.15,0-.23,0-.58-.36-.67-.58-.67a.56.56,0,0,0-.46.22.53.53,0,0,0-.09.31c0,.1,0,.2,0,.3s0,.22,0,.32a1.8,1.8,0,0,1,0,.22h-.35a.5.5,0,0,0-.51.52.52.52,0,0,0,.51.54h.34s0,0,0,0v.14c0,.2,0,.51,0,.84s0,.8,0,1.09c0,1.15.5,1.73,1.47,1.73.56,0,.88-.22.88-.59a.53.53,0,0,0-.06-.25.49.49,0,0,0-.18-.19l-.13-.05h-.17l-.23,0c-.43,0-.47-.18-.47-1,0-.36,0-.77,0-1.14s0-.51,0-.66v0h.68a.54.54,0,0,0,0-1.07h-.68Z"/><path class="cls-9" d="M86.06,14.42a.62.62,0,0,0-.17-.45.51.51,0,0,0-.39-.14H83.87a.55.55,0,0,0-.56.58.56.56,0,0,0,.56.59h0c.68,0,1.24,0,1.62,0h0A.54.54,0,0,0,86.06,14.42Z"/><path class="cls-10" d="M81.72,12a.6.6,0,0,0-.44.17.53.53,0,0,0-.14.4c0,.25,0,.63,0,1.06s0,.94,0,1.42,0,.92,0,1.3a.55.55,0,0,0,.57.57.56.56,0,0,0,.58-.57v0c0-.69,0-1.31,0-1.84,0-.79,0-1.54,0-1.93v0A.54.54,0,0,0,81.72,12Z"/><path class="cls-11" d="M81.71,9.44a.72.72,0,0,0-.73.73.7.7,0,0,0,.73.76.74.74,0,0,0,0-1.48Z"/><path class="cls-12" d="M107.33,9.44a.72.72,0,0,0-.73.73.7.7,0,0,0,.73.76.74.74,0,0,0,0-1.48Z"/><path class="cls-13" d="M69.25,7.81A2.26,2.26,0,0,0,67,10.1v6.09a2.28,2.28,0,0,0,2.24,2.28,2.36,2.36,0,0,1,1.69.89l.88,1.26a1.28,1.28,0,0,0,.35.35,1,1,0,0,0,.41.15,1,1,0,0,0,.85-.29,1.4,1.4,0,0,0,.18-.21l.88-1.26a2.36,2.36,0,0,1,1.69-.89,2.28,2.28,0,0,0,2.24-2.28V10.1a2.26,2.26,0,0,0-2.24-2.28Z"/><path class="cls-1" d="M75.36,12a.51.51,0,0,0-.53.4c-.12.59-.44,1.95-.66,2.85l-.1.41c-.09-.65-.32-1.67-.49-2.43l-.14-.63a.8.8,0,0,0-.79-.6.74.74,0,0,0-.74.62l-.15.73c-.16.77-.38,1.82-.48,2.39-.13-.84-.48-2.64-.66-3.36a.52.52,0,0,0-.54-.38.54.54,0,0,0-.58.5.44.44,0,0,0,0,.12c.1.44.28,1.16.45,1.86s.31,1.27.4,1.67a.92.92,0,0,0,.87.78,1,1,0,0,0,.89-.77c.15-.54.42-1.83.55-2.73.13.89.44,2.29.55,2.73a.88.88,0,0,0,.82.77,1,1,0,0,0,.9-.74,33,33,0,0,0,1-3.69A.52.52,0,0,0,75.36,12Z"/><path class="cls-1" d="M72.71,9.44a.71.71,0,0,0-.72.71.69.69,0,0,0,.72.74.73.73,0,0,0,0-1.46Z"/></svg>