<svg id="Calque_1" data-name="Calque 1" xmlns="http://www.w3.org/2000/svg" viewBox="0 0 75.29 21.25"><defs><style>.cls-1{fill:#1f2527;}.cls-2,.cls-3{fill:#fff;}.cls-3{font-size:4.93px;font-family:TsukuARdGothic-Bold-83pv-RKSJ-H, Tsukushi A Round Gothic;font-weight:700;letter-spacing:0.08em;}</style></defs><title>IWI BOUTON SOURCE</title><rect class="cls-1" width="75.29" height="21.25"/><path class="cls-2" d="M52.46,4a2.28,2.28,0,0,0-2.28,2.28v6.07a2.3,2.3,0,0,0,2.28,2.28,2.41,2.41,0,0,1,1.71.89l.89,1.26a1.29,1.29,0,0,0,.36.35,1,1,0,0,0,.41.15,1.11,1.11,0,0,0,.47,0,1.09,1.09,0,0,0,.4-.24,1.41,1.41,0,0,0,.18-.21l.89-1.26a2.41,2.41,0,0,1,1.71-.89,2.3,2.3,0,0,0,2.28-2.28V6.26A2.28,2.28,0,0,0,59.49,4Z"/><path class="cls-1" d="M58.67,8.12a.52.52,0,0,0-.54.4c-.12.59-.45,1.94-.67,2.84l-.1.41c-.09-.65-.32-1.67-.49-2.42l-.14-.63a.81.81,0,0,0-.8-.6.74.74,0,0,0-.75.61L55,9.47c-.16.77-.39,1.81-.49,2.39-.13-.84-.49-2.63-.67-3.35a.53.53,0,0,0-.55-.38.54.54,0,0,0-.59.5.44.44,0,0,0,0,.12c.1.43.28,1.16.45,1.85s.31,1.26.41,1.67a.93.93,0,0,0,.89.77,1,1,0,0,0,.91-.77c.15-.54.43-1.83.56-2.72.13.89.44,2.29.56,2.72a.88.88,0,0,0,.83.76,1,1,0,0,0,.91-.74,32.44,32.44,0,0,0,1-3.68A.53.53,0,0,0,58.67,8.12Z"/><path class="cls-1" d="M56,5.61a.71.71,0,0,0-.73.71.7.7,0,0,0,.73.74.73.73,0,1,0,0-1.45Z"/><text class="cls-3" transform="translate(13.52 12.53)">AJOUTER À</text></svg>