<svg id="Calque_1" data-name="Calque 1" xmlns="http://www.w3.org/2000/svg" viewBox="0 0 75.29 21.25"><defs><style>.cls-1{fill:#009b96;}.cls-2{fill:#fff;}</style></defs><title>IWI BOUTON SOURCE</title><rect class="cls-1" width="75.29" height="21.25"/><path class="cls-2" d="M40.83,8.12a.52.52,0,0,0-.54.4c-.12.59-.45,1.94-.67,2.84l-.1.41c-.09-.65-.32-1.67-.49-2.42l-.14-.63a.81.81,0,0,0-.8-.59.74.74,0,0,0-.75.61l-.15.72c-.16.77-.39,1.81-.49,2.38C36.56,11,36.2,9.22,36,8.51a.53.53,0,0,0-.55-.38.54.54,0,0,0-.59.5.43.43,0,0,0,0,.11c.1.43.28,1.15.45,1.85s.31,1.26.41,1.66a.93.93,0,0,0,.89.77,1,1,0,0,0,.9-.77c.15-.54.43-1.83.55-2.72.13.89.44,2.28.55,2.72a.88.88,0,0,0,.83.76,1,1,0,0,0,.91-.74,32.39,32.39,0,0,0,1-3.67A.53.53,0,0,0,40.83,8.12Z"/><path class="cls-2" d="M46,11.89l-.07,0c-.11,0-.34-.15-.41-.75a1.42,1.42,0,0,1,0-.2,7.36,7.36,0,0,1,0-.78v0c0-.12,0-.22,0-.33a1.5,1.5,0,0,0-1.69-1.68c-1,0-1.87.5-1.87,1a.53.53,0,0,0,.54.52.54.54,0,0,0,.41-.2,1.17,1.17,0,0,1,.86-.37c.53,0,.59.36.59.51s-.05.23-.09.24a10.22,10.22,0,0,0-1.63.42,1.32,1.32,0,0,0-1,1.26A1.64,1.64,0,0,0,43.43,13a2.09,2.09,0,0,0,1.51-.58,1.15,1.15,0,0,0,.26.3.63.63,0,0,0,.39.16.64.64,0,0,0,.56-.65A.47.47,0,0,0,46,11.89ZM44.44,11c0,.65-.33,1-1,1-.43,0-.65-.25-.65-.5s0-.54,1.61-.74h0S44.44,10.84,44.44,11Z"/><path class="cls-2" d="M49.16,8.1a1.94,1.94,0,0,0-1.32.5.54.54,0,0,0-.57-.48.55.55,0,0,0-.6.51v0c0,.69,0,1.17,0,1.7s0,1.26,0,2.1v0a.55.55,0,0,0,.59.55.53.53,0,0,0,.57-.57c0-.69,0-1.19,0-1.57s0-.48,0-.65A1.28,1.28,0,0,1,49,9.15c.41,0,.66.27.69.75,0,.15,0,.47,0,.85,0,.59,0,1.32,0,1.69h0a.58.58,0,0,0,1.16,0c0-.2,0-.46,0-.77,0-.69,0-1.52,0-1.9A1.63,1.63,0,0,0,49.16,8.1Z"/><path class="cls-2" d="M53.29,7.89q0-.12,0-.24c0-.07,0-.15,0-.22,0-.58-.37-.67-.59-.67a.57.57,0,0,0-.47.22.52.52,0,0,0-.09.3c0,.1,0,.2,0,.3s0,.21,0,.32a1.76,1.76,0,0,1,0,.22h-.35a.5.5,0,0,0-.51.52.52.52,0,0,0,.51.54h.35s0,0,0,0v.14c0,.2,0,.51,0,.84s0,.79,0,1.09c0,1.14.5,1.72,1.5,1.72.57,0,.89-.21.89-.59a.52.52,0,0,0-.06-.25.49.49,0,0,0-.19-.19l-.13-.05H54l-.23,0c-.43,0-.48-.18-.48-1,0-.36,0-.77,0-1.14s0-.51,0-.66v0H54a.53.53,0,0,0,0-1.06h-.69Z"/><path class="cls-2" d="M55.88,8.11a.62.62,0,0,0-.45.17.53.53,0,0,0-.14.39c0,.25,0,.62,0,1.05s0,.93,0,1.42,0,.92,0,1.3a.55.55,0,0,0,.58.56.56.56,0,0,0,.59-.56v0c0-.69,0-1.31,0-1.84,0-.79,0-1.54,0-1.92v0A.54.54,0,0,0,55.88,8.11Z"/><path class="cls-2" d="M59.16,7.88q0-.12,0-.24c0-.07,0-.15,0-.22,0-.58-.37-.67-.59-.67a.57.57,0,0,0-.47.22.52.52,0,0,0-.09.3c0,.1,0,.2,0,.3s0,.22,0,.32a1.76,1.76,0,0,1,0,.22h-.35a.5.5,0,0,0-.51.52.52.52,0,0,0,.51.54H58s0,0,0,0v.14c0,.2,0,.51,0,.84s0,.79,0,1.09c0,1.14.5,1.73,1.5,1.73.57,0,.9-.22.9-.59a.52.52,0,0,0-.07-.25.49.49,0,0,0-.19-.19L60,11.95h-.17l-.24,0c-.43,0-.48-.18-.48-1,0-.36,0-.77,0-1.14s0-.51,0-.66v0h.69a.53.53,0,0,0,0-1.07h-.69Z"/><path class="cls-2" d="M34.26,10.57a.62.62,0,0,0-.17-.45.53.53,0,0,0-.39-.14H32a.55.55,0,0,0-.56.58.56.56,0,0,0,.56.59h0c.69,0,1.26,0,1.65,0h0A.54.54,0,0,0,34.26,10.57Z"/><path class="cls-2" d="M29.85,8.12a.62.62,0,0,0-.45.17.53.53,0,0,0-.14.39c0,.25,0,.62,0,1.05s0,.93,0,1.42,0,.92,0,1.3a.55.55,0,0,0,.58.56.56.56,0,0,0,.59-.56v0c0-.69,0-1.31,0-1.84,0-.79,0-1.54,0-1.92v0A.54.54,0,0,0,29.85,8.12Z"/><path class="cls-2" d="M29.84,5.61a.72.72,0,0,0-.74.72.71.71,0,0,0,.74.75.74.74,0,1,0,0-1.48Z"/><path class="cls-2" d="M55.87,5.61a.72.72,0,0,0-.74.72.71.71,0,0,0,.74.75.74.74,0,1,0,0-1.48Z"/><path class="cls-2" d="M17.18,4a2.28,2.28,0,0,0-2.28,2.28v6.07a2.3,2.3,0,0,0,2.28,2.28,2.41,2.41,0,0,1,1.71.89l.89,1.26a1.29,1.29,0,0,0,.36.35,1,1,0,0,0,.41.15,1.11,1.11,0,0,0,.47,0,1.09,1.09,0,0,0,.4-.24,1.41,1.41,0,0,0,.18-.21l.89-1.26a2.41,2.41,0,0,1,1.71-.89,2.3,2.3,0,0,0,2.28-2.28V6.26A2.28,2.28,0,0,0,24.21,4Z"/><path class="cls-1" d="M23.39,8.12a.52.52,0,0,0-.54.4c-.12.59-.45,1.94-.67,2.84l-.1.41c-.09-.65-.32-1.67-.49-2.42l-.14-.63a.81.81,0,0,0-.8-.6.74.74,0,0,0-.75.61l-.15.72c-.16.77-.39,1.81-.49,2.39-.13-.84-.49-2.63-.67-3.35A.53.53,0,0,0,18,8.13a.54.54,0,0,0-.59.5.44.44,0,0,0,0,.12c.1.43.28,1.16.45,1.85s.31,1.26.41,1.67a.93.93,0,0,0,.89.77,1,1,0,0,0,.91-.77c.15-.54.43-1.83.56-2.72.13.89.44,2.29.56,2.72A.88.88,0,0,0,22,13a1,1,0,0,0,.91-.74,32.44,32.44,0,0,0,1-3.68A.53.53,0,0,0,23.39,8.12Z"/><path class="cls-1" d="M20.7,5.61a.71.71,0,0,0-.73.71.7.7,0,0,0,.73.74.73.73,0,1,0,0-1.45Z"/></svg>