<svg id="Calque_1" data-name="Calque 1" xmlns="http://www.w3.org/2000/svg" viewBox="0 0 30.37 30.37"><defs><style>.cls-1{fill:#393a53;}.cls-2{fill:#fff;}</style></defs><title>IWI BOUTON SOURCE</title><rect class="cls-1" width="30.37" height="30.37"/><path class="cls-2" d="M10.84,7A2.82,2.82,0,0,0,8,9.79V17.3a2.84,2.84,0,0,0,2.82,2.82A3,3,0,0,1,13,21.22l1.1,1.56a1.6,1.6,0,0,0,.45.43,1.21,1.21,0,0,0,.51.18,1.37,1.37,0,0,0,.58-.05,1.34,1.34,0,0,0,.49-.3,1.74,1.74,0,0,0,.22-.26l1.1-1.56a3,3,0,0,1,2.12-1.1,2.84,2.84,0,0,0,2.82-2.82V9.79A2.82,2.82,0,0,0,19.53,7Z"/><path class="cls-1" d="M18.51,12.08a.64.64,0,0,0-.67.5c-.15.73-.55,2.4-.82,3.51l-.12.51c-.12-.8-.4-2.06-.61-3l-.17-.78a1,1,0,0,0-1-.74.92.92,0,0,0-.93.76l-.19.9c-.2.95-.48,2.24-.61,3-.17-1-.61-3.25-.83-4.14a.66.66,0,0,0-.68-.47.67.67,0,0,0-.73.61.54.54,0,0,0,0,.14c.12.54.35,1.43.56,2.29s.39,1.56.51,2.06a1.15,1.15,0,0,0,1.1,1,1.18,1.18,0,0,0,1.12-1c.18-.67.53-2.26.69-3.37.16,1.1.55,2.83.69,3.36a1.09,1.09,0,0,0,1,.94A1.25,1.25,0,0,0,18,17.24a40.13,40.13,0,0,0,1.24-4.55A.65.65,0,0,0,18.51,12.08Z"/><path class="cls-1" d="M15.19,9a.88.88,0,0,0-.9.88.86.86,0,0,0,.9.92.9.9,0,1,0,0-1.8Z"/></svg>