<svg id="Calque_1" data-name="Calque 1" xmlns="http://www.w3.org/2000/svg" xmlns:xlink="http://www.w3.org/1999/xlink" viewBox="0 0 75.29 21.25"><defs><style>.cls-1{fill:#fff;}.cls-2{fill:url(#Dégradé_sans_nom_2);}.cls-3{font-size:4.93px;fill:#009b96;font-family:TsukuARdGothic-Bold-83pv-RKSJ-H, Tsukushi A Round Gothic;font-weight:700;letter-spacing:0.08em;}</style><linearGradient id="Dégradé_sans_nom_2" x1="55.66" y1="12.64" x2="53.1" y2="7.49" gradientUnits="userSpaceOnUse"><stop offset="0" stop-color="#009b96"/><stop offset="1" stop-color="#66bc94"/></linearGradient></defs><title>IWI BOUTON SOURCE</title><rect class="cls-1" width="75.29" height="21.25"/><path class="cls-2" d="M50.45,3.81a2.3,2.3,0,0,0-2.28,2.32v6.19a2.32,2.32,0,0,0,2.28,2.32,2.4,2.4,0,0,1,1.71.91l.89,1.28a1.3,1.3,0,0,0,.36.36,1,1,0,0,0,.41.15,1,1,0,0,0,.87-.29,1.43,1.43,0,0,0,.18-.21l.89-1.28a2.4,2.4,0,0,1,1.71-.91,2.32,2.32,0,0,0,2.28-2.32V6.13a2.3,2.3,0,0,0-2.28-2.32Z"/><path class="cls-1" d="M56.65,8a.52.52,0,0,0-.54.41c-.12.6-.45,2-.67,2.89l-.1.42c-.09-.66-.32-1.7-.49-2.47l-.14-.64a.81.81,0,0,0-.8-.61.75.75,0,0,0-.75.63L53,9.39c-.16.78-.39,1.85-.49,2.43-.13-.86-.49-2.68-.67-3.41A.53.53,0,0,0,51.29,8a.55.55,0,0,0-.59.51.45.45,0,0,0,0,.12c.1.44.28,1.18.45,1.89s.31,1.29.41,1.7a.94.94,0,0,0,.89.79,1,1,0,0,0,.91-.79c.15-.55.43-1.86.56-2.77.13.91.44,2.33.56,2.77a.89.89,0,0,0,.83.78,1,1,0,0,0,.91-.75,33.52,33.52,0,0,0,1-3.75A.53.53,0,0,0,56.65,8Z"/><path class="cls-1" d="M54,5.47a.72.72,0,0,0-.73.73.7.7,0,0,0,.73.75.74.74,0,0,0,0-1.48Z"/><text class="cls-3" transform="translate(20.49 11.9)">ADD TO</text></svg>